# xmcd CD database file
#
# Track frame offsets:
#	150
#	15216
#	33315
#	46041
#	64991
#	77936
#	97073
#	113191
#	127840
#	143824
#	159030
#	187553
#
# Disc length: 3060 seconds
#
# Revision: 1
# Processed by: cddbd v1.5.1PL0 Copyright (c) Steve Scherf et al.
# Submitted via: CDex 1.51
#
DISCID=860bf20c
DTITLE=Steve Forde and The Flange - Wild Ride
DYEAR=2004
DGENRE=Country
TTITLE0=The Old Days
TTITLE1=Drinking Things Over
TTITLE2=Another Man
TTITLE3=That's My Life
TTITLE4=You And Me
TTITLE5=The Ltter
TTITLE6=Upstream
TTITLE7=Head Over Heels
TTITLE8=Beer And Women
TTITLE9=Catch Me If You Can
TTITLE10=That Too
TTITLE11=Datatrack
EXTD=YEAR: 2004
EXTT0=
EXTT1=
EXTT2=
EXTT3=
EXTT4=
EXTT5=
EXTT6=
EXTT7=
EXTT8=
EXTT9=
EXTT10=
EXTT11=
PLAYORDER=
